<svg width="19" height="18" viewBox="0 0 19 18" fill="none" xmlns="http://www.w3.org/2000/svg">
<path d="M9.95023 0C4.98448 0 0.959229 4.02525 0.959229 8.99025C0.959229 12.7995 3.32773 16.053 6.67273 17.3617C6.59398 16.65 6.52348 15.5595 6.70348 14.7825C6.86773 14.0797 7.75798 10.3148 7.75798 10.3148C7.75798 10.3148 7.48873 9.77475 7.48873 8.979C7.48873 7.73175 8.21398 6.79575 9.11473 6.79575C9.88273 6.79575 10.2532 7.3725 10.2532 8.06175C10.2532 8.8335 9.76348 9.987 9.50923 11.0557C9.29548 11.9505 9.95923 12.6795 10.8405 12.6795C12.4365 12.6795 13.6665 10.9957 13.6665 8.56425C13.6665 6.4185 12.1192 4.9125 9.91048 4.9125C7.35298 4.9125 5.85373 6.834 5.85373 8.81175C5.85373 9.5865 6.14923 10.419 6.52048 10.8675C6.59473 10.9575 6.60448 11.0363 6.58423 11.1263C6.51673 11.4075 6.36448 12.0255 6.33373 12.1485C6.29398 12.3173 6.20473 12.3518 6.03298 12.2723C4.91173 11.7548 4.20823 10.1138 4.20823 8.78775C4.20823 5.95575 6.26923 3.34875 10.1482 3.34875C13.2667 3.34875 15.6922 5.574 15.6922 8.541C15.6922 11.6423 13.737 14.1375 11.0175 14.1375C10.107 14.1375 9.25198 13.6658 8.94898 13.1033L8.38723 15.2393C8.18548 16.023 7.63423 17.0033 7.26373 17.5988C8.10598 17.8575 8.99323 18 9.92623 18C14.8815 18 18.915 13.9762 18.915 9.00975C18.915 4.0425 14.8815 0.0195 9.92623 0.0195L9.95023 0Z" fill="#3D3D4E"/>
</svg>
