<svg width="19" height="18" viewBox="0 0 19 18" fill="none" xmlns="http://www.w3.org/2000/svg">
<path d="M18.6999 3.42682C18.0361 3.71857 17.3274 3.91732 16.5811 4.00807C17.3416 3.54982 17.9266 2.82757 18.2034 1.96582C17.4901 2.38207 16.6996 2.68507 15.8581 2.85382C15.1861 2.13457 14.2284 1.68457 13.1649 1.68457C11.1271 1.68457 9.47488 3.33682 9.47488 5.37232C9.47488 5.66482 9.50863 5.94607 9.57013 6.21532C6.50262 6.07057 3.78387 4.59757 1.96438 2.37082C1.64412 2.91232 1.46487 3.54157 1.46487 4.22707C1.46487 5.50957 2.11738 6.63682 3.10588 7.29907C2.50063 7.27957 1.93138 7.11307 1.43488 6.83707V6.88282C1.43488 8.67157 2.70463 10.1633 4.39438 10.5031C4.08463 10.5863 3.75763 10.6313 3.42238 10.6313C3.18688 10.6313 2.96112 10.6088 2.73537 10.5668C3.20863 12.0316 4.56912 13.0996 6.18837 13.1296C4.92837 14.1188 3.33162 14.7083 1.61187 14.7083C1.31937 14.7083 1.02762 14.6911 0.734375 14.6581C2.37612 15.7036 4.31038 16.3148 6.40213 16.3148C13.1926 16.3148 16.9014 10.6928 16.9014 5.82532C16.9014 5.66857 16.9014 5.51032 16.8901 5.35282C17.6109 4.83607 18.2401 4.18282 18.7351 3.44182L18.6999 3.42682Z" fill="#3D3D4E"/>
</svg>
