<svg width="76" height="30" viewBox="0 0 76 30" fill="none" xmlns="http://www.w3.org/2000/svg">
<path fill-rule="evenodd" clip-rule="evenodd" d="M75.8822 20.157C72.7063 25.5415 67.6766 23.9791 66.166 22.7558C65.5231 23.192 64.3958 24.1481 62.8926 24.0377C59.6913 23.8027 58.5449 19.2279 58.5449 19.2279C58.5679 19.2462 57.5913 19.5649 57.0635 19.5592C57.0567 20.9008 55.897 24.1056 52.7672 24.0646C49.2551 24.0188 48.5411 18.7864 48.5411 18.7864C48.5411 18.7864 48.1916 19.2717 46.8627 19.7551C46.9296 18.7244 46.8807 23.9077 42.6713 23.9839C39.3435 24.0442 38.4452 18.7057 38.4452 18.7057C38.4452 18.7057 37.8679 19.3054 36.7491 19.5134C36.8202 18.4659 36.7046 24.0015 32.4947 23.9839C29.6497 23.9721 28.6775 20.6954 28.7531 20.2406C28.8496 19.661 27.7916 24.0654 25.0281 23.9968C23.8877 23.9633 23.0375 23.1376 22.504 22.0368C21.7898 22.854 20.7529 23.9968 19.5897 23.9968C17.5017 23.9968 16.5812 22.2504 16.7371 17.2624C16.7504 16.6708 16.7077 16.4381 16.1196 16.3496C15.7666 16.2907 15.4051 16.1792 15.0226 16.1204C14.9 16.5295 13.8602 23.8637 10.2847 24.0029C9.08519 24.0496 8.4293 23.0105 7.89066 22.2393C7.06497 23.3316 5.97501 24.0377 4.42227 24.0377C1.79205 24.0377 0 21.9114 0 19.2885C0 16.6655 1.79205 14.5394 4.42227 14.5394C4.88732 14.5394 5.01787 14.6061 5.44272 14.73C4.569 6.77504 6.63238 5.53179 8.43739 5.53179C10.1703 5.53179 13.1308 9.55384 8.96512 19.7559C9.88998 22.7989 11.8838 22.6268 12.8419 16.3626C13.0369 15.0893 12.5155 13.371 13.3265 13.1312C14.809 12.6929 14.9663 14.0079 15.6614 14.227C16.3964 14.4585 16.8254 14.4359 17.531 14.5833C18.7367 14.8187 19.2072 15.4664 19.0603 16.909C18.8839 18.7343 18.5753 21.391 19.5162 21.7148C20.1947 21.95 21.4335 20.5429 21.6509 19.773C21.8682 19.0031 21.9136 18.7396 21.9329 18.1749C21.9623 16.968 21.9992 16.0833 22.205 15.1706C22.2931 14.8174 22.3935 14.5835 22.7931 14.5675C23.1219 14.5591 23.7232 14.4601 23.9879 14.6661C24.3407 14.9312 24.2966 15.2002 24.2561 15.9081C23.8458 26.0015 27.0038 20.9628 27.9454 16.9283C27.6101 12.3662 27.8403 5.61533 30.6991 5.5021C32.1859 5.44322 32.8432 6.63431 32.9155 7.52335C33.12 10.0343 31.9745 14.1937 30.468 16.9909C29.607 22.6984 34.2325 23.8269 34.9722 19.2712C33.762 18.6958 32.4541 16.3668 33.5184 15.2318C34.1156 14.5948 36.6015 15.5099 36.6422 17.5057C37.8616 17.1796 38.0244 16.4911 38.0413 16.6052C37.7061 12.0431 38.017 5.61539 40.876 5.50216C42.3626 5.44328 43.0198 6.63437 43.0921 7.52341C43.2966 10.0344 42.1511 14.1938 40.6448 16.991C39.7837 22.6984 44.4093 23.827 45.1488 19.2713C44.2528 19.0984 42.3614 16.6212 43.4527 15.2319C44.0359 14.4894 46.5127 16.0334 46.79 17.5718C47.9614 17.2403 48.1205 16.5737 48.1373 16.6859C47.802 12.124 48.1129 5.69624 50.9719 5.58301C52.4585 5.52413 53.1157 6.71522 53.188 7.60426C53.3925 10.1152 52.247 14.2747 50.7405 17.0719C49.8796 22.7794 54.5051 23.9077 55.2448 19.352C54.0135 19.147 52.2636 16.5314 53.672 15.1933C54.2347 14.6587 56.3848 16.0465 56.8881 17.6298C57.5874 17.6029 58.0227 17.3617 58.116 17.3374C56.9996 11.9818 57.8307 5.55588 60.9062 5.50224C62.5685 5.47327 64.1936 6.4009 63.4803 11.496C62.7994 16.3574 60.3519 18.3975 60.3576 18.4287C60.5 19.0111 61.7559 23.8851 64.9185 21.3134C64.7548 20.9427 64.5909 20.564 64.4993 20.1052C63.9751 17.4327 65.0047 14.4141 67.8032 13.9262C69.4066 13.6467 70.917 14.4273 71.1558 16.1872C71.5487 19.0669 68.9484 21.1524 67.9596 21.6048C67.5167 21.3532 71.9742 24.212 74.6196 18.4829C74.773 18.1558 74.9579 18.1835 75.1975 18.3521C75.3667 18.4712 76.3305 19.3842 75.8822 20.157ZM6.33552 18.5809C6.20092 18.1785 5.92469 17.2918 5.82701 16.9076C5.28905 16.4398 4.90507 16.3638 4.21455 16.3638C2.68 16.3638 1.77679 17.7826 1.77679 19.3125C1.77679 20.8423 2.76077 22.2613 4.29533 22.2613C5.6252 22.2613 6.63735 21.3571 6.94615 20.0771C6.73001 19.5781 6.5156 19.1195 6.33552 18.5809ZM8.39979 7.63753C7.32153 7.63753 6.95576 10.2097 7.02674 12.4041C7.08953 14.3441 7.63164 16.0521 7.91286 16.8174C7.98426 16.9133 7.971 16.8509 8.03474 16.9526C9.90694 12.8505 9.13041 7.63753 8.39979 7.63753ZM30.8531 7.71833C29.4595 7.5585 29.4685 13.3639 29.6415 14.6661C30.3653 13.5082 31.6226 8.03009 30.8531 7.71833ZM41.0297 7.71833C39.6361 7.5585 39.6451 13.3639 39.8182 14.6661C40.5419 13.5082 41.7993 8.03009 41.0297 7.71833ZM51.1257 7.7991C49.732 7.63927 49.741 13.4447 49.9141 14.747C50.6378 13.589 51.8952 8.11084 51.1257 7.7991ZM61.06 7.37849C58.8887 7.81451 59.3943 15.054 59.7241 16.3237C62.2817 12.8108 62.3344 7.24654 61.06 7.37849ZM69.1975 16.4254C69.0871 15.9638 68.5351 15.7171 68.1541 15.7779C67.0639 15.9268 66.0065 17.2846 66.4158 19.3518C66.5069 19.8122 66.7349 20.236 66.7312 20.2219C69.1711 18.585 69.3785 17.2951 69.1975 16.4254ZM23.2205 12.9696C22.9089 12.9696 22.6043 12.8773 22.3452 12.7042C22.0861 12.5311 21.8841 12.2851 21.7648 11.9973C21.6455 11.7094 21.6143 11.3926 21.6751 11.087C21.7358 10.7814 21.8859 10.5007 22.1062 10.2803C22.3265 10.06 22.6072 9.90989 22.9128 9.84909C23.2184 9.78829 23.5352 9.81948 23.8231 9.93873C24.111 10.058 24.357 10.2599 24.5301 10.519C24.7032 10.7781 24.7956 11.0827 24.7956 11.3943C24.7956 11.6011 24.7549 11.806 24.6757 11.9971C24.5966 12.1882 24.4806 12.3619 24.3343 12.5082C24.188 12.6544 24.0144 12.7705 23.8233 12.8496C23.6322 12.9288 23.4274 12.9696 23.2205 12.9696Z" fill="#0D0C22"/>
</svg>
